<?xml version="1.0" encoding="UTF-8"?>
<svg id="Layer_2" data-name="Layer 2" xmlns="http://www.w3.org/2000/svg" viewBox="0 0 1277.97 387.25">
  <defs>
    <style>
      .cls-1 {
        fill: #fff;
      }
    </style>
  </defs>
  <g id="Layer_1-2" data-name="Layer 1">
    <g>
      <g>
        <path class="cls-1" d="m460.49,207.45c-3.67,0-7.06-.92-10.18-2.75-3.12-1.83-5.6-4.31-7.43-7.43-1.84-3.12-2.75-6.51-2.75-10.18v-12.8h21.33v11.7h56.14v-77.61h21.6v78.71c0,3.67-.94,7.07-2.82,10.18-1.88,3.12-4.36,5.6-7.43,7.43-3.08,1.84-6.45,2.75-10.11,2.75h-58.34Z"/>
        <path class="cls-1" d="m554.61,207.45v-98.93h78.57c3.76,0,7.18.92,10.25,2.75,3.07,1.84,5.55,4.31,7.43,7.43,1.88,3.12,2.82,6.51,2.82,10.18v25.59c0,3.67-.94,7.06-2.82,10.18-1.88,3.12-4.36,5.6-7.43,7.43-3.08,1.84-6.49,2.75-10.25,2.75l-57.24.14v32.47h-21.33Zm77.47-54.08v-23.53h-56.14v23.53h56.14Zm-.55,54.08l-28.76-34.26h27.93l22.84,26.97v7.29h-22.02Z"/>
        <path class="cls-1" d="m668.41,128.75c0-3.76.92-7.18,2.75-10.25,1.83-3.07,4.31-5.53,7.43-7.36,3.12-1.83,6.51-2.75,10.18-2.75h58.2c3.76,0,7.18.92,10.25,2.75,3.07,1.84,5.55,4.29,7.43,7.36,1.88,3.07,2.82,6.49,2.82,10.25v78.71h-21.6v-31.92h-56.14v31.92h-21.33v-78.71Zm77.47,25.32v-24.22h-56.14v24.22h56.14Z"/>
        <path class="cls-1" d="m827.61,207.45v-99.07h21.33v38.8h58.48v-38.8h21.33v99.07h-21.33v-38.8h-58.48v38.8h-21.33Z"/>
        <path class="cls-1" d="m964.66,207.45c-3.67,0-7.06-.92-10.18-2.75-3.12-1.83-5.6-4.31-7.43-7.43-1.84-3.12-2.75-6.51-2.75-10.18v-58.34c0-3.76.92-7.18,2.75-10.25,1.83-3.07,4.31-5.53,7.43-7.36,3.12-1.83,6.51-2.75,10.18-2.75h58.34c3.67,0,7.04.92,10.11,2.75,3.07,1.84,5.55,4.29,7.43,7.36,1.88,3.07,2.82,6.49,2.82,10.25v58.34c0,3.67-.94,7.07-2.82,10.18-1.88,3.12-4.36,5.6-7.43,7.43-3.07,1.84-6.45,2.75-10.11,2.75h-58.34Zm57.1-21.47v-56.14h-56.14v56.14h56.14Z"/>
        <path class="cls-1" d="m1058.5,207.45v-99.07h22.02l33.57,40.04,33.44-40.04h22.15v99.07h-21.46v-66.46l-34.12,40.73-34.26-40.59v66.32h-21.33Z"/>
        <path class="cls-1" d="m1186.46,207.45v-99.07h91.5v21.47h-69.9v17.34h56.28v21.46h-56.28v17.34h69.9v21.47h-91.5Z"/>
      </g>
      <g>
        <path class="cls-1" d="m489.59,282.78v-40.58h19.01c4.87,0,8.58.96,11.13,2.87s3.83,4.47,3.83,7.68c0,2.17-.5,4.01-1.51,5.54-1.01,1.53-2.35,2.71-4.03,3.54-1.68.83-3.51,1.25-5.48,1.25l1.04-2.09c2.28,0,4.33.42,6.14,1.25s3.26,2.04,4.32,3.62c1.06,1.58,1.59,3.56,1.59,5.91,0,3.48-1.33,6.18-4,8.12-2.67,1.93-6.63,2.9-11.88,2.9h-20.17Zm7.54-5.91h12.17c2.82,0,4.99-.46,6.49-1.39,1.51-.93,2.26-2.42,2.26-4.46s-.75-3.49-2.26-4.43c-1.51-.95-3.67-1.42-6.49-1.42h-12.75v-5.86h11.25c2.63,0,4.65-.46,6.06-1.39,1.41-.93,2.12-2.32,2.12-4.17s-.71-3.3-2.12-4.23c-1.41-.93-3.43-1.39-6.06-1.39h-10.67v28.75Z"/>
        <path class="cls-1" d="m568.54,283.35c-5.57,0-9.92-1.56-13.07-4.7-3.15-3.13-4.72-7.65-4.72-13.57v-22.9h7.54v22.61c0,4.17.9,7.21,2.7,9.1,1.8,1.89,4.34,2.84,7.62,2.84s5.82-.95,7.59-2.84c1.78-1.89,2.67-4.93,2.67-9.1v-22.61h7.42v22.9c0,5.91-1.58,10.43-4.72,13.57-3.15,3.13-7.49,4.7-13.01,4.7Z"/>
        <path class="cls-1" d="m614.22,282.78v-40.58h7.54v40.58h-7.54Z"/>
        <path class="cls-1" d="m650.11,282.78v-40.58h7.54v34.2h21.22v6.38h-28.75Z"/>
        <path class="cls-1" d="m702.22,282.78v-40.58h17.74c4.41,0,8.27.85,11.59,2.55,3.32,1.7,5.91,4.06,7.77,7.07s2.78,6.57,2.78,10.67-.93,7.6-2.78,10.64c-1.86,3.03-4.45,5.4-7.77,7.1-3.32,1.7-7.19,2.55-11.59,2.55h-17.74Zm7.54-6.38h9.86c3.05,0,5.69-.58,7.91-1.74,2.22-1.16,3.94-2.78,5.16-4.87s1.83-4.52,1.83-7.3-.61-5.27-1.83-7.33-2.94-3.68-5.16-4.84c-2.22-1.16-4.86-1.74-7.91-1.74h-9.86v27.83Z"/>
        <path class="cls-1" d="m775.03,276.46h22.9v6.32h-30.43v-40.58h29.62v6.32h-22.09v27.94Zm-.58-17.39h20.17v6.2h-20.17v-6.2Z"/>
        <path class="cls-1" d="m823.73,282.78v-40.58h16.7c3.59,0,6.68.58,9.25,1.74,2.57,1.16,4.55,2.82,5.94,4.99,1.39,2.17,2.09,4.73,2.09,7.71s-.7,5.54-2.09,7.68c-1.39,2.14-3.37,3.79-5.94,4.93-2.57,1.14-5.65,1.71-9.25,1.71h-12.52l3.36-3.42v15.25h-7.54Zm7.54-14.43l-3.36-3.59h12.17c3.32,0,5.83-.71,7.51-2.14,1.68-1.43,2.52-3.42,2.52-5.97s-.84-4.58-2.52-5.97c-1.68-1.39-4.18-2.09-7.51-2.09h-12.17l3.36-3.71v23.48Zm19.01,14.43l-10.26-14.72h8.06l10.32,14.72h-8.12Z"/>
        <path class="cls-1" d="m896.08,283.35c-3.17,0-6.2-.45-9.1-1.36-2.9-.91-5.2-2.08-6.9-3.51l2.61-5.86c1.62,1.28,3.63,2.34,6.03,3.19,2.4.85,4.85,1.28,7.36,1.28,2.12,0,3.84-.23,5.16-.7,1.31-.46,2.28-1.09,2.9-1.88s.93-1.69.93-2.7c0-1.24-.45-2.23-1.33-2.99s-2.04-1.35-3.45-1.8-2.98-.86-4.7-1.25-3.44-.84-5.16-1.36c-1.72-.52-3.29-1.2-4.7-2.03-1.41-.83-2.56-1.94-3.45-3.33-.89-1.39-1.33-3.17-1.33-5.33s.59-4.22,1.77-6.06c1.18-1.83,2.98-3.3,5.39-4.41s5.48-1.65,9.19-1.65c2.43,0,4.85.31,7.25.93,2.4.62,4.48,1.51,6.26,2.67l-2.38,5.86c-1.82-1.08-3.69-1.88-5.62-2.41-1.93-.52-3.79-.78-5.57-.78-2.09,0-3.78.25-5.07.75-1.3.5-2.24,1.16-2.84,1.97-.6.81-.9,1.74-.9,2.78,0,1.24.43,2.23,1.3,2.99.87.75,2.01,1.34,3.42,1.77,1.41.43,2.99.84,4.72,1.25,1.74.41,3.47.86,5.19,1.36,1.72.5,3.28,1.16,4.7,1.97,1.41.81,2.55,1.91,3.42,3.3.87,1.39,1.3,3.15,1.3,5.28s-.59,4.17-1.77,6c-1.18,1.84-2.99,3.3-5.42,4.41-2.43,1.1-5.51,1.65-9.22,1.65Z"/>
        <path class="cls-1" d="m989.52,283.35c-3.09,0-5.96-.51-8.61-1.54-2.65-1.02-4.95-2.47-6.9-4.35-1.95-1.87-3.47-4.09-4.55-6.64s-1.62-5.33-1.62-8.35.54-5.8,1.62-8.35,2.61-4.76,4.58-6.64c1.97-1.87,4.27-3.32,6.9-4.35,2.63-1.02,5.51-1.54,8.64-1.54,3.32,0,6.36.57,9.1,1.71,2.74,1.14,5.06,2.83,6.96,5.07l-4.87,4.58c-1.47-1.58-3.11-2.77-4.93-3.57-1.82-.79-3.79-1.19-5.91-1.19s-4.07.35-5.83,1.04c-1.76.7-3.29,1.68-4.58,2.96s-2.3,2.78-3.01,4.52c-.72,1.74-1.07,3.65-1.07,5.74s.36,4,1.07,5.74c.71,1.74,1.72,3.25,3.01,4.52s2.82,2.26,4.58,2.96c1.76.7,3.7,1.04,5.83,1.04s4.1-.4,5.91-1.19c1.82-.79,3.46-2,4.93-3.62l4.87,4.64c-1.89,2.2-4.21,3.88-6.96,5.04-2.75,1.16-5.8,1.74-9.16,1.74Z"/>
        <path class="cls-1" d="m1048.42,283.35c-3.17,0-6.09-.52-8.75-1.56-2.67-1.04-4.99-2.5-6.96-4.38-1.97-1.87-3.5-4.08-4.58-6.61-1.08-2.53-1.62-5.3-1.62-8.32s.54-5.79,1.62-8.32c1.08-2.53,2.61-4.73,4.58-6.61,1.97-1.87,4.29-3.33,6.96-4.38,2.67-1.04,5.57-1.56,8.7-1.56s6.08.52,8.72,1.56c2.65,1.04,4.96,2.5,6.93,4.38,1.97,1.88,3.5,4.08,4.58,6.61,1.08,2.53,1.62,5.3,1.62,8.32s-.54,5.8-1.62,8.35c-1.08,2.55-2.61,4.75-4.58,6.61-1.97,1.86-4.28,3.3-6.93,4.35-2.65,1.04-5.54,1.56-8.67,1.56Zm-.06-6.61c2.05,0,3.94-.35,5.68-1.04,1.74-.7,3.25-1.69,4.52-2.99,1.28-1.29,2.27-2.8,2.99-4.52.71-1.72,1.07-3.62,1.07-5.71s-.36-3.99-1.07-5.71-1.71-3.23-2.99-4.52-2.78-2.29-4.52-2.99c-1.74-.7-3.63-1.04-5.68-1.04s-3.93.35-5.65,1.04c-1.72.7-3.23,1.69-4.52,2.99s-2.3,2.8-3.01,4.52c-.72,1.72-1.07,3.62-1.07,5.71s.36,3.94,1.07,5.68c.71,1.74,1.71,3.26,2.99,4.55,1.28,1.3,2.78,2.29,4.52,2.99,1.74.7,3.63,1.04,5.68,1.04Z"/>
        <path class="cls-1" d="m1095.61,282.78v-40.58h16.7c3.59,0,6.68.58,9.25,1.74,2.57,1.16,4.55,2.82,5.94,4.99,1.39,2.17,2.09,4.73,2.09,7.71s-.7,5.54-2.09,7.68c-1.39,2.14-3.37,3.79-5.94,4.93-2.57,1.14-5.65,1.71-9.25,1.71h-12.52l3.36-3.42v15.25h-7.54Zm7.54-14.43l-3.36-3.59h12.17c3.32,0,5.83-.71,7.51-2.14,1.68-1.43,2.52-3.42,2.52-5.97s-.84-4.58-2.52-5.97c-1.68-1.39-4.18-2.09-7.51-2.09h-12.17l3.36-3.71v23.48Zm19.01,14.43l-10.26-14.72h8.06l10.32,14.72h-8.12Z"/>
        <path class="cls-1" d="m1155.38,282.78v-40.58h16.7c3.59,0,6.68.58,9.25,1.74,2.57,1.16,4.55,2.82,5.94,4.99,1.39,2.17,2.09,4.73,2.09,7.71s-.7,5.55-2.09,7.71c-1.39,2.16-3.37,3.83-5.94,4.99-2.57,1.16-5.65,1.74-9.25,1.74h-12.52l3.36-3.54v15.25h-7.54Zm7.54-14.43l-3.36-3.65h12.17c3.32,0,5.83-.71,7.51-2.12,1.68-1.41,2.52-3.39,2.52-5.94s-.84-4.58-2.52-5.97c-1.68-1.39-4.18-2.09-7.51-2.09h-12.17l3.36-3.71v23.48Z"/>
        <path class="cls-1" d="m1214.86,283.18c-1.31,0-2.43-.45-3.36-1.36-.93-.91-1.39-2.06-1.39-3.45,0-1.47.46-2.64,1.39-3.51.93-.87,2.05-1.3,3.36-1.3s2.43.43,3.36,1.3c.93.87,1.39,2.04,1.39,3.51,0,1.39-.46,2.54-1.39,3.45-.93.91-2.05,1.36-3.36,1.36Z"/>
      </g>
      <path class="cls-1" d="m190.78,0C190.51.16.24,108.04,0,108.2v167.88l128.11,72.6v-144.98l104.84-59.46-52.95-30.05-97.63,55.35v93.09l-36.57-20.71v-99.61L190.72,60.1l132.29,75-158.39,95.14v139.14l31.43,17.87,178.99-107.55V104.52L190.78,0Zm138.46,246.39l-118.82,71.38v-54.3l118.82-71.36v54.28Z"/>
    </g>
  </g>
</svg>